<svg xmlns="http://www.w3.org/2000/svg" width="30" height="32" viewBox="0 0 30 32"><path d="M25.143 17.714v8.571q0 .464-.339.804t-.804.339h-6.857v-6.857h-4.571v6.857h-6.857q-.464 0-.804-.339t-.339-.804v-8.571l.009-.054.009-.054 10.268-8.464 10.268 8.464.018.107zm3.982-1.232l-1.107 1.321q-.143.161-.375.196h-.054q-.232 0-.375-.125l-12.357-10.304-12.357 10.304q-.214.143-.429.125-.232-.036-.375-.196l-1.107-1.321q-.143-.179-.125-.42t.196-.384l12.839-10.696q.571-.464 1.357-.464t1.357.464l4.357 3.643v-3.482q0-.25.161-.411t.411-.161h3.429q.25 0 .411.161t.161.411v7.286l3.911 3.25q.179.143.196.384t-.125.42z"/></svg>