<svg xmlns="http://www.w3.org/2000/svg" width="32" height="32" viewBox="0 0 32 32"><path d="M14 22h4v4h-4zm8-14c1.105 0 2 .895 2 2v6l-6 4h-4v-2l6-4v-2h-10v-4h12zm-6-5c-3.472 0-6.737 1.352-9.192 3.808s-3.808 5.72-3.808 9.192c0 3.472 1.352 6.737 3.808 9.192 2.455 2.455 5.72 3.808 9.192 3.808 3.472 0 6.737-1.352 9.192-3.808 2.455-2.455 3.808-5.72 3.808-9.192 0-3.472-1.352-6.737-3.808-9.192-2.455-2.455-5.72-3.808-9.192-3.808zm0-3c8.837 0 16 7.163 16 16s-7.163 16-16 16-16-7.163-16-16 7.163-16 16-16z"/></svg>