<svg xmlns="http://www.w3.org/2000/svg" width="19" height="20" viewBox="0 0 19 20"><path d="M12.857 9.286q0-2.065-1.468-3.532t-3.532-1.468-3.532 1.468-1.468 3.532 1.468 3.532 3.532 1.468 3.532-1.468 1.468-3.532zm5.714 9.285q0 .58-.424 1.004t-1.004.424q-.603 0-1.004-.424l-3.828-3.817q-1.998 1.384-4.453 1.384-1.596 0-3.052-.619t-2.511-1.674-1.674-2.511-.619-3.052.619-3.052 1.674-2.511 2.511-1.674 3.052-.619 3.052.619 2.511 1.674 1.674 2.511.619 3.052q0 2.455-1.384 4.453l3.828 3.828q.413.413.413 1.004z"/></svg>